<?xml version="1.0" encoding="UTF-8"?>
<svg id="Capa_2" data-name="Capa 2" xmlns="http://www.w3.org/2000/svg" viewBox="0 0 52.22 42.97">
  <defs>
    <style>
      .cls-1 {
        fill: #fff;
      }
    </style>
  </defs>
  <g id="Capa_1-2" data-name="Capa 1">
    <g>
      <path class="cls-1" d="M36.75,21.01h-2.72l-6.57-6.57-6.65,6.65h-1.99V4.87h1.91l6.57,6.66.23.07c1.07-1.25,3.06-2.53,3.63-4.09.71-1.95.03-3.93-1.78-4.95-.25-.14-1.36-.61-1.58-.61h-10.51v19.14h-2.03V0h13.18c2.43,0,4.83,3.1,4.99,5.39.25,3.62-2.42,5.33-4.54,7.7l7.86,7.92ZM20.77,18.17l5.27-5.14-5.27-5.16v10.3Z"/>
      <path class="cls-1" d="M14.26,28.49c3.59-.49,5.22,2.16,4.88,5.44-.17,1.65-1.52,3.37-3.22,3.6-6.35.86-6.32-8.41-1.66-9.04ZM14.5,29.47c-3.44.47-3.46,7.67,1.11,7.11,3.51-.43,3.51-7.74-1.11-7.11Z"/>
      <path class="cls-1" d="M47.27,28.49c3.51-.47,5.33,2.19,4.88,5.45-.23,1.67-1.45,3.36-3.22,3.6-6.36.86-6.29-8.42-1.66-9.04ZM47.52,29.47c-3.44.47-3.45,7.67,1.11,7.11,3.51-.43,3.52-7.74-1.11-7.11Z"/>
      <path class="cls-1" d="M3.53,28.64c2.85.34,3.35,3.92.65,4.87-.18.06-.57.02-.53.2l2.52,3.69-1.14-.04-2.72-3.61h-1.18v3.65H0v-8.76c1.12.1,2.44-.13,3.53,0ZM1.14,32.77h1.99c.26,0,.88-.27,1.1-.44.78-.61.77-1.9-.11-2.41-.12-.07-.74-.31-.83-.31H1.14v3.16Z"/>
      <path class="cls-1" d="M26.92,28.65l3.5,8.75c-.28-.05-1.01.1-1.18-.08-.28-.28-.65-1.93-.95-2.38-.03-.05-.04-.11-.12-.13-1.06.08-2.37-.14-3.4-.02-.09.01-.18,0-.24.09l-.97,2.44-1.18.08,3.48-8.71,1.05-.03ZM27.82,33.83l-1.42-3.73-1.42,3.73h2.84Z"/>
      <polygon class="cls-1" points="43.32 28.64 43.32 29.61 40.32 29.61 40.32 37.4 39.26 37.4 39.26 29.61 36.34 29.61 36.34 28.64 43.32 28.64"/>
      <polygon class="cls-1" points="32.85 28.64 32.85 36.42 37.15 36.42 37.15 37.4 31.8 37.4 31.8 28.64 32.85 28.64"/>
      <rect class="cls-1" x="7.95" y="28.64" width="1.14" height="8.76"/>
      <polygon class="cls-1" points="13.15 39.78 13.71 39.79 14.63 42.17 15.66 39.79 16.23 39.78 16.23 42.91 15.83 42.91 15.88 40.35 14.81 42.88 14.66 42.92 13.49 40.29 13.49 42.91 13.15 42.91 13.15 39.78"/>
      <polygon class="cls-1" points="8.99 39.78 9.43 39.79 11.16 42.29 11.16 39.78 11.55 39.78 11.55 42.91 11.12 42.86 9.39 40.41 9.39 42.91 8.99 42.91 8.99 39.78"/>
      <path class="cls-1" d="M23.32,39.78c.63.09,1.09.79.63,1.31-.09.1-.24.07-.2.22.47.12.61.55.44.99-.28.75-1.46.59-2.1.61v-3.13c.38.04.86-.05,1.23,0ZM22.49,40.21v.85c.34.21,1.25.07,1.25-.46s-.77-.5-1.15-.48l-.09.08ZM22.49,42.51h.88c.23,0,.49-.31.49-.54,0-.2-.25-.48-.43-.48h-.94v1.03Z"/>
      <path class="cls-1" d="M20.19,42.55c-.23.23-.71.42-1.03.42-1.96,0-1.98-3.43.17-3.25,1.34.11,1.68,2.01.86,2.83ZM19,40.08c-1.21.19-1.15,2.29-.11,2.48,1.84.34,1.69-2.73.11-2.48Z"/>
      <path class="cls-1" d="M38.08,39.78c1.09.15,1.11,1.62.03,1.79l.85,1.34c-.16,0-.27.03-.4-.08-.23-.18-.73-1.12-.91-1.2-.13-.06-.31-.02-.46-.03v1.31h-.4v-3.13c.4.04.9-.05,1.28,0ZM37.2,41.26c.45.02,1.3.05,1.3-.6,0-.54-.94-.67-1.3-.46v1.05Z"/>
      <path class="cls-1" d="M34.28,39.79l1.26,3.12h-.45s-.34-.93-.34-.93h-1.26c-.28.36-.18,1.09-.8.93l1.2-3.04c.08-.13.25-.11.38-.08ZM34.57,41.6c-.14-.36-.23-.76-.4-1.11-.03-.06-.03-.13-.12-.14l-.4,1.25h.91Z"/>
      <path class="cls-1" d="M43.74,39.79l1.2,3.13c-.62.16-.52-.58-.8-.94h-1.26s-.34.93-.34.93h-.45s1.25-3.09,1.25-3.09l.4-.03ZM44.03,41.6l-.46-1.25c-.08,0-.09.08-.12.14-.15.33-.26.77-.4,1.11h.97Z"/>
      <polygon class="cls-1" points="28.14 39.78 28.14 42.51 29.62 42.51 29.62 42.91 27.74 42.91 27.74 39.78 28.14 39.78"/>
      <rect class="cls-1" x="25.74" y="39.78" width=".4" height="3.13"/>
      <rect class="cls-1" x="30.98" y="39.78" width=".4" height="3.13"/>
      <rect class="cls-1" x="40.44" y="39.78" width=".4" height="3.13"/>
      <rect class="cls-1" x="7.05" y="39.78" width=".34" height="3.13"/>
    </g>
  </g>
</svg>